# xmcd
#
# Track frame offsets:
#	187
#	18637
#	34780
#	50465
#	67665
#	82005
#	100162
#	123505
#	145030
#	160895
#	179485
#
# Disc length: 2680 seconds
#
# Revision: 2
# Processed by: cddbd v1.5.1PL2 Copyright (c) Steve Scherf et al.
# Submitted via: dBpowerAMP V4.0
#
DISCID=8e0a760b
DTITLE=Restless Heart - Big Dreams in a Small Town
DYEAR=1988
DGENRE=Country
TTITLE0=Say What's In Your Heart
TTITLE1=Big Dreams in a Small Town
TTITLE2=A Tender Lie
TTITLE3=Jenny Come Back
TTITLE4=No Way Out
TTITLE5=Carved In Stone
TTITLE6=Eldorado
TTITLE7=The Bluest Eyes In Texas
TTITLE8=This Time
TTITLE9=Calm Before The Storm
TTITLE10=The Ride Of Your Life
EXTD=
EXTT0=
EXTT1=
EXTT2=
EXTT3=
EXTT4=
EXTT5=
EXTT6=
EXTT7=
EXTT8=
EXTT9=
EXTT10=
PLAYORDER=
